{"title":"Snow White Deadly Summer.2012.DvdRip.Xvid.AC3.MHST","uid":7123077,"size":796176149,"categoryP":"video","categoryS":"movies","magnet":"?xt=urn:btih:d2d5db7ea61ec11845bf39a1a67d40e33c11e013&amp;dn=Snow+White+Deadly+Summer.2012.DvdRip.Xvid.AC3.MHST&amp;tr=udp%3A%2F%2Ftracker.openbittorrent.com%3A80&amp;tr=udp%3A%2F%2Fopen.demonii.com%3A1337&amp;tr=udp%3A%2F%2Ftracker.coppersurfer.tk%3A6969&amp;tr=udp%3A%2F%2Fexodus.desync.com%3A6969","seeders":1,"leechers":0,"uploader":"HeroMaster","files":-1,"time":1332432010,"description":"Snow White Deadly Summer.2012.DvdRip.Xvid.AC3.MHST\n &lt;a href=&quot;\nhttp://www.imdb.com/title/tt2149137/&quot; rel=&quot;nofollow&quot; target=&quot;_NEW&quot;&gt;\nhttp://www.imdb.com/title/tt2149137/&lt;/a&gt;\n\nVideo\nID                                       : 0\nFormat                                   : MPEG-4 Visual\nFormat profile                           : Advanced Simple@L5\nFormat settings, BVOP                    : 2\nFormat settings, QPel                    : No\nFormat settings, GMC                     : No warppoints\nFormat settings, Matrix                  : Default (H.263)\nCodec ID                                 : XVID\nCodec ID/Hint                            : XviD\nDuration                                 : 1h 23mn\nBit rate                                 : 1 142 Kbps\nWidth                                    : 720 pixels\nHeight                                   : 400 pixels\nDisplay aspect ratio                     : 16:9\nFrame rate                               : 23.976 fps\nColor space                              : YUV\nChroma subsampling                       : 4:2:0\nBit depth                                : 8 bits\nScan type                                : Progressive\nCompression mode                         : Lossy\nBits/(Pixel*Frame)                       : 0.165\nStream size                              : 680 MiB (90%)\nWriting library                          : XviD 1.2.1 (UTC 2008-12-04)\n\nAudio\nID                                       : 1\nFormat                                   : MPEG Audio\nFormat version                           : Version 1\nFormat profile                           : Layer 3\nMode                                     : Joint stereo\nCodec ID                                 : 55\nCodec ID/Hint                            : MP3\nDuration                                 : 1h 23mn\nBit rate mode                            : Constant\nBit rate                                 : 128 Kbps\nChannel(s)                               : 2 channels\nSampling rate                            : 44.1 KHz\nCompression mode                         : Lossy\nStream size                              : 76.2 MiB (10%)\nAlignment                                : Aligned on interleaves\nInterleave, duration                     : 167 ms (4.00 video frames)\nInterleave, preload duration             : 208 ms\n\n\nPoster:\n\n &lt;a href=&quot;\nhttp://i.imgur.com/7m41i.jpg&quot; rel=&quot;nofollow&quot; target=&quot;_NEW&quot;&gt;\nhttp://i.imgur.com/7m41i.jpg&lt;/a&gt;\n\n\nScreens:\n\n &lt;a href=&quot;\nhttp://i.imgur.com/PkWZ7.jpg&quot; rel=&quot;nofollow&quot; target=&quot;_NEW&quot;&gt;\nhttp://i.imgur.com/PkWZ7.jpg&lt;/a&gt;\n\n &lt;a href=&quot;\nhttp://i.imgur.com/Vn7PG.jpg&quot; rel=&quot;nofollow&quot; target=&quot;_NEW&quot;&gt;\nhttp://i.imgur.com/Vn7PG.jpg&lt;/a&gt;\n\n &lt;a href=&quot;\nhttp://i.imgur.com/omfdb.jpg&quot; rel=&quot;nofollow&quot; target=&quot;_NEW&quot;&gt;\nhttp://i.imgur.com/omfdb.jpg&lt;/a&gt;\n\n\nENJOY!","torrent":{"xt":"urn:btih:d2d5db7ea61ec11845bf39a1a67d40e33c11e013","amp;dn":"Snow+White+Deadly+Summer.2012.DvdRip.Xvid.AC3.MHST","amp;tr":["udp%3A%2F%2Ftracker.openbittorrent.com%3A80","udp%3A%2F%2Fopen.demonii.com%3A1337","udp%3A%2F%2Ftracker.coppersurfer.tk%3A6969","udp%3A%2F%2Fexodus.desync.com%3A6969"],"infoHash":"d2d5db7ea61ec11845bf39a1a67d40e33c11e013","infoHashBuffer":{"type":"Buffer","data":[210,213,219,126,166,30,193,24,69,191,57,161,166,125,64,227,60,17,224,19]},"announce":[],"urlList":[]}}